<svg id="icons" xmlns="http://www.w3.org/2000/svg" viewBox="0 0 340 340"><path d="M130.35,227.127l-36.632,8.265-36.631-8.265s-6.612,31.5-7.714,101.98h88.69C136.961,258.63,130.35,227.127,130.35,227.127Z" style="fill:#6f6f7f"/><path d="M130.35,227.127c-6.061-20.111-24.243-31.406-24.243-31.406H81.33s-18.182,11.295-24.243,31.406c0,0,12.655,14.6,36.631,29.477h0C117.7,241.728,130.35,227.127,130.35,227.127Z" style="fill:#9d9daa"/><path d="M93.718,184.426H81.33V195.71a10.523,10.523,0,0,0,3.838,8.127l8.55,7.036h0l8.551-7.036a10.523,10.523,0,0,0,3.838-8.127V184.426Z" style="fill:#ffd6bb"/><path d="M93.718,184.426H81.33v9.626a53.089,53.089,0,0,0,24.473,4.136,10.514,10.514,0,0,0,.3-2.478V184.426Z" style="fill:#f4a28c"/><path d="M170.725,152.732a12.623,12.623,0,0,0-6.157-9.715h0a8.3,8.3,0,0,0-8.439,0h0a12.623,12.623,0,0,0-6.157,9.715l-1.164,12.634h23.081Z" style="fill:#f9c646"/><path d="M87.012,46.3C58.958,62.734,36.049,84.886,25.5,95.914a8.554,8.554,0,0,0,.814,12.568l67.409,54.474,67.41-54.474a8.555,8.555,0,0,0,.814-12.568c-10.554-11.028-33.463-33.18-61.517-49.619A13.255,13.255,0,0,0,87.012,46.3Z" style="fill:#6f6f7f"/><path d="M123.151,150.353v11.758c0,14.435-13.178,26.136-29.433,26.136h0c-16.255,0-29.432-11.7-29.432-26.136V124.67c19.051-7.218,38.714-6.656,58.865,0Z" style="fill:#ffd6bb"/><path d="M78.3,159.8a14.013,14.013,0,0,0,6.429,12.357,16.332,16.332,0,0,0,17.973,0,14.014,14.014,0,0,0,6.428-12.357Z" style="fill:#ff7676"/><path d="M64.286,125.073s22.563-11.791,58.865,0V106.8a21.614,21.614,0,0,0-21.614-21.614H85.9A21.613,21.613,0,0,0,64.286,106.8Z" style="fill:#9d9daa"/><rect x="102.955" y="224.741" width="69.713" height="44.389" style="fill:#ffe5c2"/><path d="M137.811,255.169h0a14.94,14.94,0,0,1,14.94,14.94v2.454a8.7,8.7,0,0,1-8.7,8.7H131.568a8.7,8.7,0,0,1-8.7-8.7v-2.454a14.94,14.94,0,0,1,14.94-14.94Z" style="fill:#ffd6bb"/><path d="M64.286,124.67v9.344c5.886-2.3,28.587-9.605,58.865-.014v-9.33C103,118.014,83.337,117.451,64.286,124.67Z" style="fill:#f4a28c"/><path d="M254.654,10.885c-18.821,17.869-62.221,9.755-62.221,9.755V83.956a59.536,59.536,0,0,0,4.027,21.915c15.634,39.509,58.194,47.426,58.194,47.426s42.56-7.917,58.194-47.426a59.536,59.536,0,0,0,4.027-21.915V20.64S273.475,28.754,254.654,10.885Z" style="fill:#ffdc6c"/><path d="M254.654,10.885a34.635,34.635,0,0,1-10.378,6.609L192.433,69.336v14.62a61.12,61.12,0,0,0,2.283,16.758l80.156-80.156C267.2,18.885,259.951,15.914,254.654,10.885Z" style="fill:#ffedd2"/><path d="M201.99,116.955a71.945,71.945,0,0,0,7.649,10.307L310.881,26.369V21.5c-3.35.4-7.874.806-12.988.933Z" style="fill:#ffedd2"/><path d="M312.848,105.871a59.536,59.536,0,0,0,4.027-21.915V20.64s-43.4,8.114-62.221-9.755V153.3S297.214,145.38,312.848,105.871Z" style="fill:#fca742"/><path d="M192.433,54.576,225.01,22c-2.568.247-5.116.387-7.589.445L192.433,47.431Z" style="fill:#ffedd2"/><path d="M53.257,225.972c-.025.083-.039.167-.058.25-.007.029-.021.054-.027.083-.273,1.3-6.7,32.685-7.8,102.74a4,4,0,0,0,4,4.062h88.69a4,4,0,0,0,4-4.062c-.188-12.016-.551-23.709-1.079-34.754a4,4,0,1,0-7.991.382c.464,9.711.8,19.931,1,30.434H53.443c.907-47.605,4.373-76.764,6.281-89.548a193.291,193.291,0,0,0,28.992,22.616,4,4,0,0,0,4.327-6.728,177.573,177.573,0,0,1-31.419-25.308c4.067-11.308,12.27-19.458,17.379-23.7a14.494,14.494,0,0,0,3.623,4.482l8.551,7.036a4,4,0,0,0,5.083,0l8.55-7.036a14.478,14.478,0,0,0,3.626-4.486,63.207,63.207,0,0,1,11,11.714,4,4,0,0,0,6.506-4.657,71.17,71.17,0,0,0-15.84-15.888v-5.671a33.451,33.451,0,0,0,17.044-29.124V106.8a25.644,25.644,0,0,0-25.614-25.614H85.9A25.644,25.644,0,0,0,60.285,106.8v24L28.823,105.371a4.554,4.554,0,0,1-.439-6.691c10.9-11.389,33.273-32.891,60.65-48.934a9.279,9.279,0,0,1,9.368,0c27.38,16.044,49.751,37.545,60.65,48.934a4.552,4.552,0,0,1-.438,6.69L135.3,124.213a4,4,0,1,0,5.028,6.222l16.8-13.578v21.737l-2.252,1.328a16.66,16.66,0,0,0-8.108,12.794L145.6,165.349a4,4,0,0,0,3.983,4.367h23.081a4,4,0,0,0,3.983-4.367l-1.163-12.633a16.664,16.664,0,0,0-8.109-12.794l-2.251-1.328V110.15a12.516,12.516,0,0,0-.3-17c-11.187-11.69-34.168-33.77-62.385-50.3a17.286,17.286,0,0,0-17.457,0C56.774,59.377,33.792,81.458,22.6,93.149A12.555,12.555,0,0,0,23.8,111.593l36.49,29.489v17.732A33.449,33.449,0,0,0,77.33,187.938v5.668C72.275,197.225,58.564,208.362,53.257,225.972Zm114.265-72.523.761,8.267H153.972l.762-8.267a8.647,8.647,0,0,1,4.206-6.636l2.188-1.29,2.187,1.29A8.646,8.646,0,0,1,167.522,153.449ZM68.285,106.8A17.635,17.635,0,0,1,85.9,89.183h15.637A17.634,17.634,0,0,1,119.151,106.8v12.9A103.063,103.063,0,0,0,91.7,115.813a77.173,77.173,0,0,0-23.418,3.407Zm0,52.017v-31.1c6.04-2.282,24.441-7.53,50.866.307v30.79a25.433,25.433,0,1,1-50.866,0Zm25.433,33.433a33.357,33.357,0,0,0,8.389-1.067v4.53a6.5,6.5,0,0,1-2.38,5.038l-6.009,4.945-6.009-4.945a6.5,6.5,0,0,1-2.379-5.038v-4.53A33.343,33.343,0,0,0,93.718,192.247Z" style="fill:#494456"/><path d="M104.918,175.489a18,18,0,0,0,8.215-15.689,4,4,0,0,0-4-4H78.3a4,4,0,0,0-4,4,18,18,0,0,0,8.215,15.689,20.464,20.464,0,0,0,22.4,0ZM82.926,163.8h21.585a9.8,9.8,0,0,1-4.02,5.025,12.372,12.372,0,0,1-13.546,0A9.8,9.8,0,0,1,82.926,163.8Z" style="fill:#494456"/><path d="M156.722,273.13h15.946a4,4,0,0,0,4-4V224.741a4,4,0,0,0-4-4H102.955a4,4,0,0,0-4,4V269.13a4,4,0,0,0,4,4H118.9a12.7,12.7,0,0,0,12.668,12.13h12.486A12.7,12.7,0,0,0,156.722,273.13Zm-49.767-44.389h61.713V265.13h-12.6a18.913,18.913,0,0,0-36.507,0h-12.6Zm19.916,43.822v-2.454a10.94,10.94,0,1,1,21.88,0v2.454a4.7,4.7,0,0,1-4.7,4.7H131.568A4.7,4.7,0,0,1,126.871,272.563Z" style="fill:#494456"/><path d="M316.139,16.708c-.413.077-41.589,7.551-58.731-8.724-.074-.071-.159-.12-.237-.184a3.821,3.821,0,0,0-.323-.25c-.111-.073-.227-.131-.343-.192a3.76,3.76,0,0,0-.349-.172,3.884,3.884,0,0,0-.374-.122c-.122-.036-.241-.074-.364-.1s-.258-.035-.388-.047-.249-.026-.375-.026a3.791,3.791,0,0,0-.384.027c-.127.012-.253.022-.379.046a3.694,3.694,0,0,0-.371.1,3.754,3.754,0,0,0-.368.119,3.857,3.857,0,0,0-.353.175,3.749,3.749,0,0,0-.339.189,4.1,4.1,0,0,0-.325.252c-.078.063-.162.113-.236.183-17.109,16.244-58.318,8.8-58.733,8.723a4,4,0,0,0-4.734,3.932V83.956a63.285,63.285,0,0,0,4.308,23.387C209,148.436,252.1,156.89,253.923,157.23h.01a3.96,3.96,0,0,0,.717.067h.008a3.96,3.96,0,0,0,.717-.067h.011c1.826-.34,44.921-8.794,61.181-49.887a63.269,63.269,0,0,0,4.308-23.387V20.639a4,4,0,0,0-4.736-3.931Zm-3.264,67.248a55.316,55.316,0,0,1-3.747,20.443c-13.514,34.154-48.95,43.538-54.478,44.808-5.542-1.26-40.917-10.555-54.471-44.808a55.328,55.328,0,0,1-3.746-20.443V25.3c11.54,1.52,41.151,3.823,58.221-9.19,17.071,13.013,46.682,10.708,58.221,9.19Z" style="fill:#494456"/><circle cx="84.485" cy="142.346" r="4" style="fill:#494456"/><circle cx="102.955" cy="142.346" r="4" style="fill:#494456"/></svg>